<svg width="160" height="54" viewBox="0 0 160 54" fill="none" xmlns="http://www.w3.org/2000/svg">
<path d="M1.845 37.5V15H5.985V37.5H1.845ZM16.2223 37.89C14.8423 37.89 13.5823 37.535 12.4423 36.825C11.3123 36.115 10.4073 35.165 9.72727 33.975C9.05727 32.775 8.72227 31.45 8.72227 30C8.72227 28.9 8.91727 27.875 9.30727 26.925C9.69727 25.965 10.2323 25.125 10.9123 24.405C11.6023 23.675 12.4023 23.105 13.3123 22.695C14.2223 22.285 15.1923 22.08 16.2223 22.08C17.6023 22.08 18.8573 22.435 19.9873 23.145C21.1273 23.855 22.0323 24.81 22.7023 26.01C23.3823 27.21 23.7223 28.54 23.7223 30C23.7223 31.09 23.5273 32.11 23.1373 33.06C22.7473 34.01 22.2073 34.85 21.5173 35.58C20.8373 36.3 20.0423 36.865 19.1323 37.275C18.2323 37.685 17.2623 37.89 16.2223 37.89ZM16.2223 33.75C16.8623 33.75 17.4373 33.58 17.9473 33.24C18.4573 32.89 18.8573 32.43 19.1473 31.86C19.4373 31.29 19.5823 30.67 19.5823 30C19.5823 29.31 19.4273 28.68 19.1173 28.11C18.8173 27.53 18.4123 27.07 17.9023 26.73C17.3923 26.39 16.8323 26.22 16.2223 26.22C15.5923 26.22 15.0223 26.395 14.5123 26.745C14.0023 27.095 13.5973 27.555 13.2973 28.125C13.0073 28.695 12.8623 29.32 12.8623 30C12.8623 30.71 13.0123 31.35 13.3123 31.92C13.6223 32.48 14.0323 32.925 14.5423 33.255C15.0523 33.585 15.6123 33.75 16.2223 33.75ZM37.0064 22.5H41.1464V37.71C41.1464 38.82 40.9214 39.82 40.4714 40.71C40.0214 41.61 39.4064 42.38 38.6264 43.02C37.8564 43.66 36.9664 44.15 35.9564 44.49C34.9564 44.83 33.8964 45 32.7764 45C31.7164 45 30.7014 44.79 29.7314 44.37C28.7614 43.96 27.9014 43.39 27.1514 42.66C26.4014 41.93 25.8164 41.09 25.3964 40.14L29.1764 38.415C29.3864 38.915 29.6714 39.345 30.0314 39.705C30.4014 40.065 30.8214 40.34 31.2914 40.53C31.7714 40.73 32.2664 40.83 32.7764 40.83C33.3264 40.83 33.8514 40.765 34.3514 40.635C34.8614 40.505 35.3164 40.31 35.7164 40.05C36.1164 39.79 36.4314 39.465 36.6614 39.075C36.8914 38.685 37.0064 38.23 37.0064 37.71V35.97C36.5464 36.54 35.9864 37.005 35.3264 37.365C34.6764 37.715 33.9214 37.89 33.0614 37.89C31.9814 37.89 30.9664 37.685 30.0164 37.275C29.0764 36.865 28.2464 36.3 27.5264 35.58C26.8064 34.85 26.2414 34.01 25.8314 33.06C25.4214 32.11 25.2164 31.09 25.2164 30C25.2164 28.91 25.4214 27.89 25.8314 26.94C26.2414 25.99 26.8064 25.155 27.5264 24.435C28.2464 23.705 29.0764 23.135 30.0164 22.725C30.9664 22.315 31.9814 22.11 33.0614 22.11C33.9214 22.11 34.6764 22.29 35.3264 22.65C35.9864 23 36.5464 23.46 37.0064 24.03V22.5ZM33.1214 33.915C33.8014 33.915 34.4164 33.74 34.9664 33.39C35.5164 33.03 35.9464 32.555 36.2564 31.965C36.5764 31.375 36.7364 30.72 36.7364 30C36.7364 29.28 36.5764 28.625 36.2564 28.035C35.9464 27.435 35.5164 26.96 34.9664 26.61C34.4164 26.26 33.8014 26.085 33.1214 26.085C32.4514 26.085 31.8364 26.26 31.2764 26.61C30.7264 26.96 30.2864 27.435 29.9564 28.035C29.6264 28.625 29.4614 29.28 29.4614 30C29.4614 30.72 29.6264 31.38 29.9564 31.98C30.2864 32.57 30.7264 33.04 31.2764 33.39C31.8364 33.74 32.4514 33.915 33.1214 33.915ZM50.6754 37.89C49.2954 37.89 48.0354 37.535 46.8954 36.825C45.7654 36.115 44.8604 35.165 44.1804 33.975C43.5104 32.775 43.1754 31.45 43.1754 30C43.1754 28.9 43.3704 27.875 43.7604 26.925C44.1504 25.965 44.6854 25.125 45.3654 24.405C46.0554 23.675 46.8554 23.105 47.7654 22.695C48.6754 22.285 49.6454 22.08 50.6754 22.08C52.0554 22.08 53.3104 22.435 54.4404 23.145C55.5804 23.855 56.4854 24.81 57.1554 26.01C57.8354 27.21 58.1754 28.54 58.1754 30C58.1754 31.09 57.9804 32.11 57.5904 33.06C57.2004 34.01 56.6604 34.85 55.9704 35.58C55.2904 36.3 54.4954 36.865 53.5854 37.275C52.6854 37.685 51.7154 37.89 50.6754 37.89ZM50.6754 33.75C51.3154 33.75 51.8904 33.58 52.4004 33.24C52.9104 32.89 53.3104 32.43 53.6004 31.86C53.8904 31.29 54.0354 30.67 54.0354 30C54.0354 29.31 53.8804 28.68 53.5704 28.11C53.2704 27.53 52.8654 27.07 52.3554 26.73C51.8454 26.39 51.2854 26.22 50.6754 26.22C50.0454 26.22 49.4754 26.395 48.9654 26.745C48.4554 27.095 48.0504 27.555 47.7504 28.125C47.4604 28.695 47.3154 29.32 47.3154 30C47.3154 30.71 47.4654 31.35 47.7654 31.92C48.0754 32.48 48.4854 32.925 48.9954 33.255C49.5054 33.585 50.0654 33.75 50.6754 33.75Z" fill="white"/>
</svg>
