<svg width="58" height="30" viewBox="0 0 58 30" fill="none" xmlns="http://www.w3.org/2000/svg">
<path d="M0.845 22.5V-1.78814e-06H4.985V22.5H0.845ZM15.2223 22.89C13.8423 22.89 12.5823 22.535 11.4423 21.825C10.3123 21.115 9.40727 20.165 8.72727 18.975C8.05727 17.775 7.72227 16.45 7.72227 15C7.72227 13.9 7.91727 12.875 8.30727 11.925C8.69727 10.965 9.23227 10.125 9.91227 9.405C10.6023 8.675 11.4023 8.105 12.3123 7.695C13.2223 7.285 14.1923 7.08 15.2223 7.08C16.6023 7.08 17.8573 7.435 18.9873 8.145C20.1273 8.855 21.0323 9.81 21.7023 11.01C22.3823 12.21 22.7223 13.54 22.7223 15C22.7223 16.09 22.5273 17.11 22.1373 18.06C21.7473 19.01 21.2073 19.85 20.5173 20.58C19.8373 21.3 19.0423 21.865 18.1323 22.275C17.2323 22.685 16.2623 22.89 15.2223 22.89ZM15.2223 18.75C15.8623 18.75 16.4373 18.58 16.9473 18.24C17.4573 17.89 17.8573 17.43 18.1473 16.86C18.4373 16.29 18.5823 15.67 18.5823 15C18.5823 14.31 18.4273 13.68 18.1173 13.11C17.8173 12.53 17.4123 12.07 16.9023 11.73C16.3923 11.39 15.8323 11.22 15.2223 11.22C14.5923 11.22 14.0223 11.395 13.5123 11.745C13.0023 12.095 12.5973 12.555 12.2973 13.125C12.0073 13.695 11.8623 14.32 11.8623 15C11.8623 15.71 12.0123 16.35 12.3123 16.92C12.6223 17.48 13.0323 17.925 13.5423 18.255C14.0523 18.585 14.6123 18.75 15.2223 18.75ZM36.0064 7.5H40.1464V22.71C40.1464 23.82 39.9214 24.82 39.4714 25.71C39.0214 26.61 38.4064 27.38 37.6264 28.02C36.8564 28.66 35.9664 29.15 34.9564 29.49C33.9564 29.83 32.8964 30 31.7764 30C30.7164 30 29.7014 29.79 28.7314 29.37C27.7614 28.96 26.9014 28.39 26.1514 27.66C25.4014 26.93 24.8164 26.09 24.3964 25.14L28.1764 23.415C28.3864 23.915 28.6714 24.345 29.0314 24.705C29.4014 25.065 29.8214 25.34 30.2914 25.53C30.7714 25.73 31.2664 25.83 31.7764 25.83C32.3264 25.83 32.8514 25.765 33.3514 25.635C33.8614 25.505 34.3164 25.31 34.7164 25.05C35.1164 24.79 35.4314 24.465 35.6614 24.075C35.8914 23.685 36.0064 23.23 36.0064 22.71V20.97C35.5464 21.54 34.9864 22.005 34.3264 22.365C33.6764 22.715 32.9214 22.89 32.0614 22.89C30.9814 22.89 29.9664 22.685 29.0164 22.275C28.0764 21.865 27.2464 21.3 26.5264 20.58C25.8064 19.85 25.2414 19.01 24.8314 18.06C24.4214 17.11 24.2164 16.09 24.2164 15C24.2164 13.91 24.4214 12.89 24.8314 11.94C25.2414 10.99 25.8064 10.155 26.5264 9.435C27.2464 8.705 28.0764 8.135 29.0164 7.725C29.9664 7.315 30.9814 7.11 32.0614 7.11C32.9214 7.11 33.6764 7.29 34.3264 7.65C34.9864 8 35.5464 8.46 36.0064 9.03V7.5ZM32.1214 18.915C32.8014 18.915 33.4164 18.74 33.9664 18.39C34.5164 18.03 34.9464 17.555 35.2564 16.965C35.5764 16.375 35.7364 15.72 35.7364 15C35.7364 14.28 35.5764 13.625 35.2564 13.035C34.9464 12.435 34.5164 11.96 33.9664 11.61C33.4164 11.26 32.8014 11.085 32.1214 11.085C31.4514 11.085 30.8364 11.26 30.2764 11.61C29.7264 11.96 29.2864 12.435 28.9564 13.035C28.6264 13.625 28.4614 14.28 28.4614 15C28.4614 15.72 28.6264 16.38 28.9564 16.98C29.2864 17.57 29.7264 18.04 30.2764 18.39C30.8364 18.74 31.4514 18.915 32.1214 18.915ZM49.6754 22.89C48.2954 22.89 47.0354 22.535 45.8954 21.825C44.7654 21.115 43.8604 20.165 43.1804 18.975C42.5104 17.775 42.1754 16.45 42.1754 15C42.1754 13.9 42.3704 12.875 42.7604 11.925C43.1504 10.965 43.6854 10.125 44.3654 9.405C45.0554 8.675 45.8554 8.105 46.7654 7.695C47.6754 7.285 48.6454 7.08 49.6754 7.08C51.0554 7.08 52.3104 7.435 53.4404 8.145C54.5804 8.855 55.4854 9.81 56.1554 11.01C56.8354 12.21 57.1754 13.54 57.1754 15C57.1754 16.09 56.9804 17.11 56.5904 18.06C56.2004 19.01 55.6604 19.85 54.9704 20.58C54.2904 21.3 53.4954 21.865 52.5854 22.275C51.6854 22.685 50.7154 22.89 49.6754 22.89ZM49.6754 18.75C50.3154 18.75 50.8904 18.58 51.4004 18.24C51.9104 17.89 52.3104 17.43 52.6004 16.86C52.8904 16.29 53.0354 15.67 53.0354 15C53.0354 14.31 52.8804 13.68 52.5704 13.11C52.2704 12.53 51.8654 12.07 51.3554 11.73C50.8454 11.39 50.2854 11.22 49.6754 11.22C49.0454 11.22 48.4754 11.395 47.9654 11.745C47.4554 12.095 47.0504 12.555 46.7504 13.125C46.4604 13.695 46.3154 14.32 46.3154 15C46.3154 15.71 46.4654 16.35 46.7654 16.92C47.0754 17.48 47.4854 17.925 47.9954 18.255C48.5054 18.585 49.0654 18.75 49.6754 18.75Z" fill="white"/>
</svg>
