<svg width="14" height="20" viewBox="0 0 14 20" fill="none" xmlns="http://www.w3.org/2000/svg">
<path d="M10 6.66667C10 5.74653 9.67448 4.96094 9.02344 4.3099C8.3724 3.65885 7.58681 3.33333 6.66667 3.33333C5.74653 3.33333 4.96094 3.65885 4.3099 4.3099C3.65885 4.96094 3.33333 5.74653 3.33333 6.66667C3.33333 7.58681 3.65885 8.3724 4.3099 9.02344C4.96094 9.67448 5.74653 10 6.66667 10C7.58681 10 8.3724 9.67448 9.02344 9.02344C9.67448 8.3724 10 7.58681 10 6.66667ZM13.3333 6.66667C13.3333 7.61285 13.1901 8.38976 12.9036 8.9974L8.16406 19.0755C8.02517 19.362 7.81901 19.5877 7.54557 19.7526C7.27214 19.9175 6.97917 20 6.66667 20C6.35417 20 6.0612 19.9175 5.78776 19.7526C5.51432 19.5877 5.3125 19.362 5.18229 19.0755L0.429688 8.9974C0.143229 8.38976 0 7.61285 0 6.66667C0 4.82639 0.651042 3.25521 1.95313 1.95312C3.25521 0.651042 4.82639 0 6.66667 0C8.50694 0 10.0781 0.651042 11.3802 1.95312C12.6823 3.25521 13.3333 4.82639 13.3333 6.66667Z" fill="white"/>
</svg>
