<svg width="20" height="20" viewBox="0 0 20 20" fill="none" xmlns="http://www.w3.org/2000/svg">
<path d="M7.95563 11.4668C9.11535 12.6432 10.5186 13.5515 12.0667 14.1279L14.1612 12.4612C14.2233 12.4184 14.2969 12.3956 14.3723 12.3956C14.4477 12.3956 14.5213 12.4184 14.5834 12.4612L18.4723 14.9668C18.6199 15.0555 18.7449 15.1774 18.8374 15.3228C18.9298 15.4681 18.9872 15.633 19.005 15.8043C19.0227 15.9757 19.0004 16.1488 18.9398 16.3101C18.8792 16.4713 18.7819 16.6162 18.6556 16.7334L16.8334 18.5334C16.5725 18.7913 16.2517 18.9805 15.8998 19.0842C15.5479 19.188 15.1758 19.203 14.8167 19.1279C11.2346 18.3881 7.93293 16.6554 5.28897 14.1279C2.70368 11.5752 0.914675 8.32724 0.138967 4.77788C0.0623374 4.42434 0.0783311 4.05701 0.185398 3.71147C0.292466 3.36594 0.486976 3.05392 0.750078 2.80565L2.63897 0.983433C2.75586 0.863315 2.8984 0.771196 3.05594 0.713976C3.21347 0.656755 3.38191 0.635915 3.54864 0.653015C3.71537 0.670116 3.87607 0.724714 4.01871 0.812722C4.16135 0.900729 4.28223 1.01987 4.3723 1.16121L6.96119 5.0001C7.00584 5.06038 7.02995 5.13341 7.02995 5.20843C7.02995 5.28345 7.00584 5.35648 6.96119 5.41677L5.25563 7.46677C5.84762 8.98395 6.76993 10.3503 7.95563 11.4668Z" fill="white"/>
</svg>
