<svg width="20" height="20" viewBox="0 0 20 20" fill="none" xmlns="http://www.w3.org/2000/svg">
<path d="M13.75 10C13.75 10.8672 13.7031 11.7031 13.6211 12.5H6.37891C6.29688 11.7031 6.21484 10.8672 6.21484 10C6.21484 9.13281 6.29688 8.29688 6.37891 7.5H13.6211C13.7031 8.29688 13.75 9.13281 13.75 10ZM19.6836 7.5C19.8906 8.30078 20 9.13672 20 10C20 10.8633 19.8906 11.6992 19.6836 12.5H14.875C14.957 11.6953 15 10.8242 15 10C15 9.14062 14.957 8.30469 14.875 7.5H19.6836ZM19.2734 6.25H14.7148C14.3242 3.75547 13.5508 1.66484 12.5547 0.329766C15.6172 1.13633 18.1016 3.35703 19.2734 6.25ZM13.4492 6.25H6.55078C6.78906 4.82812 7.15625 3.56953 7.60547 2.55273C8.01562 1.63047 8.47266 0.961328 8.91406 0.539453C9.35156 0.124141 9.71484 0 10 0C10.2852 0 10.6484 0.124141 11.0859 0.539453C11.5273 0.961328 11.9844 1.63047 12.3945 2.55273C12.8438 3.56953 13.2109 4.82812 13.4492 6.25ZM0.726953 6.25C1.89805 3.35703 4.38281 1.13633 7.44531 0.329766C6.44922 1.66484 5.67578 3.75547 5.28516 6.25H0.726953ZM5.125 7.5C5.04297 8.30469 4.96484 9.14062 4.96484 10C4.96484 10.8242 5.04297 11.6953 5.125 12.5H0.315039C0.109375 11.6992 0 10.8633 0 10C0 9.13672 0.109375 8.30078 0.315039 7.5H5.125ZM7.60547 17.4453C7.15625 16.4297 6.78906 15.1719 6.55078 13.75H13.4492C13.2109 15.1719 12.8438 16.4297 12.3945 17.4453C11.9844 18.3711 11.5273 19.0391 11.0859 19.4609C10.6484 19.875 10.2852 20 9.96484 20C9.71484 20 9.35156 19.875 8.91406 19.4609C8.47266 19.0391 8.01562 18.3711 7.60547 17.4453ZM7.44531 19.6719C4.38281 18.8633 1.89805 16.6445 0.726953 13.75H5.28516C5.67578 16.2461 6.44922 18.3359 7.44531 19.6719ZM12.5547 19.6719C13.5508 18.3359 14.3242 16.2461 14.7148 13.75H19.2734C18.1016 16.6445 15.6172 18.8633 12.5547 19.6719Z" fill="white"/>
</svg>
