<svg width="17" height="16" viewBox="0 0 17 16" fill="none" xmlns="http://www.w3.org/2000/svg">
<path d="M15.8 3.69988C13.4 -0.000122309 8.50002 -1.10012 4.70002 1.19988C1.00002 3.49988 -0.199976 8.49988 2.20002 12.1999L2.40002 12.4999L1.60002 15.4999L4.60002 14.6999L4.90002 14.8999C6.20002 15.5999 7.60002 15.9999 9.00002 15.9999C10.5 15.9999 12 15.5999 13.3 14.7999C17 12.3999 18.1 7.49988 15.8 3.69988ZM13.7 11.3999C13.3 11.9999 12.8 12.3999 12.1 12.4999C11.7 12.4999 11.2 12.6999 9.20002 11.8999C7.50002 11.0999 6.10002 9.79988 5.10002 8.29988C4.50002 7.59988 4.20002 6.69988 4.10002 5.79988C4.10002 4.99988 4.40002 4.29988 4.90002 3.79988C5.10002 3.59988 5.30002 3.49988 5.50002 3.49988H6.00002C6.20002 3.49988 6.40002 3.49988 6.50002 3.89988C6.70002 4.39988 7.20002 5.59988 7.20002 5.69988C7.30002 5.79988 7.30002 5.99988 7.20002 6.09988C7.30002 6.29988 7.20002 6.49988 7.10002 6.59988C7.00002 6.69988 6.90002 6.89988 6.80002 6.99988C6.60002 7.09988 6.50002 7.29988 6.60002 7.49988C7.00002 8.09988 7.50002 8.69988 8.00002 9.19988C8.60002 9.69988 9.20002 10.0999 9.90002 10.3999C10.1 10.4999 10.3 10.4999 10.4 10.2999C10.5 10.0999 11 9.59988 11.2 9.39988C11.4 9.19987 11.5 9.19988 11.7 9.29988L13.3 10.0999C13.5 10.1999 13.7 10.2999 13.8 10.3999C13.9 10.6999 13.9 11.0999 13.7 11.3999Z" fill="white"/>
</svg>
